<svg width="48" height="48" viewBox="0 0 48 48" fill="none" xmlns="http://www.w3.org/2000/svg">
<rect x="0.5" y="0.5" width="47" height="47" rx="7.5" fill="#F5F5F5"/>
<rect x="0.5" y="0.5" width="47" height="47" rx="7.5" stroke="#E5E5E5"/>
<g clip-path="url(#clip0_1_2778)">
<g clip-path="url(#clip1_1_2778)">
<path d="M16.5 24C16.5 25.3807 15.3807 26.5 14 26.5C12.6193 26.5 11.5 25.3807 11.5 24C11.5 22.6193 12.6193 21.5 14 21.5C15.3807 21.5 16.5 22.6193 16.5 24Z" stroke="#333333" stroke-width="1.5"/>
<path d="M26.5 24C26.5 25.3807 25.3807 26.5 24 26.5C22.6193 26.5 21.5 25.3807 21.5 24C21.5 22.6193 22.6193 21.5 24 21.5C25.3807 21.5 26.5 22.6193 26.5 24Z" stroke="#333333" stroke-width="1.5"/>
<path d="M36.5 24C36.5 25.3807 35.3807 26.5 34 26.5C32.6193 26.5 31.5 25.3807 31.5 24C31.5 22.6193 32.6193 21.5 34 21.5C35.3807 21.5 36.5 22.6193 36.5 24Z" stroke="#333333" stroke-width="1.5"/>
<path d="M16.5 14C16.5 15.3807 15.3807 16.5 14 16.5C12.6193 16.5 11.5 15.3807 11.5 14C11.5 12.6193 12.6193 11.5 14 11.5C15.3807 11.5 16.5 12.6193 16.5 14Z" stroke="#333333" stroke-width="1.5"/>
<path d="M26.5 14C26.5 15.3807 25.3807 16.5 24 16.5C22.6193 16.5 21.5 15.3807 21.5 14C21.5 12.6193 22.6193 11.5 24 11.5C25.3807 11.5 26.5 12.6193 26.5 14Z" stroke="#333333" stroke-width="1.5"/>
<path d="M36.5 14C36.5 15.3807 35.3807 16.5 34 16.5C32.6193 16.5 31.5 15.3807 31.5 14C31.5 12.6193 32.6193 11.5 34 11.5C35.3807 11.5 36.5 12.6193 36.5 14Z" stroke="#333333" stroke-width="1.5"/>
<path d="M16.5 34C16.5 35.3807 15.3807 36.5 14 36.5C12.6193 36.5 11.5 35.3807 11.5 34C11.5 32.6193 12.6193 31.5 14 31.5C15.3807 31.5 16.5 32.6193 16.5 34Z" stroke="#333333" stroke-width="1.5"/>
<path d="M26.5 34C26.5 35.3807 25.3807 36.5 24 36.5C22.6193 36.5 21.5 35.3807 21.5 34C21.5 32.6193 22.6193 31.5 24 31.5C25.3807 31.5 26.5 32.6193 26.5 34Z" stroke="#333333" stroke-width="1.5"/>
<path d="M36.5 34C36.5 35.3807 35.3807 36.5 34 36.5C32.6193 36.5 31.5 35.3807 31.5 34C31.5 32.6193 32.6193 31.5 34 31.5C35.3807 31.5 36.5 32.6193 36.5 34Z" stroke="#333333" stroke-width="1.5"/>
</g>
</g>
<defs>
<clipPath id="clip0_1_2778">
<rect width="30" height="30" fill="white" transform="translate(9 9)"/>
</clipPath>
<clipPath id="clip1_1_2778">
<rect width="30" height="30" fill="white" transform="translate(9 9)"/>
</clipPath>
</defs>
</svg>
